<?xml version="1.0" encoding="UTF-8"?>
<svg id="Layer_1" data-name="Layer 1" xmlns="http://www.w3.org/2000/svg" viewBox="0 0 2148 1080">
  <defs>
    <style>
      .cls-1 {
        fill: #f2e8c6;
      }
    </style>
  </defs>
  <g>
    <path class="cls-1" d="M839.61,735.04c-5.07,0-7.61-2.43-7.61-7.3,0-5.99,2.53-8.99,7.61-8.99,13.65,0,24.37-2.33,32.18-7.02,7.8-4.68,14.82-13.57,21.06-26.68,3.12-5.99,7.7-16.1,13.75-30.33,6.04-14.23,13.07-31.26,21.06-51.12,7.99-19.84,16.47-41.01,25.45-63.47,8.97-22.47,17.94-44.94,26.92-67.41,8.97-22.47,17.26-43.34,24.87-62.63,7.61-19.28,14.04-35.85,19.31-49.71,5.27-13.85,8.87-23.21,10.82-28.09,1.95-4.86,4.19-8.05,6.73-9.55,2.53-1.49,6.92-2.25,13.17-2.25s10.72,.75,13.46,2.25c2.72,1.5,5.06,4.69,7.02,9.55,3.12,7.49,8.09,19.66,14.92,36.51,6.82,16.85,14.72,36.33,23.7,58.42,8.97,22.1,18.33,45.22,28.09,69.37,9.75,24.15,19.21,47.66,28.38,70.5,9.16,22.85,17.45,43.53,24.87,62.07,7.41,18.54,13.26,32.86,17.55,42.97,7.02,17.23,14.53,29.31,22.53,36.23,7.99,6.93,15.7,10.39,23.11,10.39,5.06,0,7.61,3,7.61,8.99,0,4.87-2.54,7.3-7.61,7.3-3.9,0-11.9-.09-23.99-.28-12.1-.18-28.29-.28-48.57-.28-16.78,0-32.77,.1-47.98,.28-15.21,.19-24.78,.28-28.67,.28-5.07,0-7.61-2.43-7.61-7.3,0-5.99,2.53-8.99,7.61-8.99,12.48,0,21.16-1.97,26.04-5.9,4.87-3.93,7.31-8.61,7.31-14.04s-.98-10.01-2.93-13.76c-.39-.75-1.76-4.49-4.1-11.23s-5.17-14.89-8.48-24.43c-3.32-9.55-6.73-19.1-10.24-28.65-3.51-9.55-6.44-17.69-8.78-24.43h-157.98c-2.34,7.5-5.37,16.95-9.07,28.37-3.71,11.43-7.02,22.57-9.95,33.42-2.93,10.87-4.39,19.66-4.39,26.4,0,13.86,3.6,23.03,10.83,27.52,7.21,4.49,17.26,6.74,30.13,6.74,5.07,0,7.61,3,7.61,8.99,0,4.87-2.54,7.3-7.61,7.3-3.9,0-11.22-.09-21.94-.28-10.73-.18-24.68-.28-41.84-.28-15.21,0-28.67,.1-40.37,.28-11.7,.19-19.7,.28-23.99,.28Zm118.2-157.28h142.77l-68.46-185.37-74.31,185.37Z"/>
    <path class="cls-1" d="M1379.1,741.78c-25.36,0-48.67-4.49-69.92-13.48-21.27-8.99-38.33-23.5-51.2-43.53-12.87-20.03-19.31-46.15-19.31-78.36,0-26.96,5.85-51.3,17.55-73.02,11.7-21.71,28.67-38.94,50.91-51.68,22.23-12.73,49.15-19.1,80.75-19.1,17.16,0,33.15,3.09,47.98,9.27,14.82,6.18,26.92,14.52,36.28,25,9.36,10.49,14.04,22.66,14.04,36.51,0,10.49-3.61,19.38-10.82,26.68-7.22,7.3-16.48,10.95-27.79,10.95s-19.8-2.71-25.45-8.14c-5.66-5.42-8.29-12.45-7.9-21.06,.38-5.24,1.66-9.45,3.8-12.64,2.14-3.18,4.39-6.64,6.73-10.39,2.34-3.74,3.51-8.43,3.51-14.04,0-4.12-3.13-8.61-9.36-13.48-6.24-4.86-15.21-7.3-26.92-7.3-12.49,0-25.26,3.84-38.33,11.52-13.07,7.68-23.99,20.41-32.77,38.2-8.78,17.79-13.17,42.04-13.17,72.74,0,35.2,7.99,61.42,23.99,78.64,15.99,17.23,35.88,25.84,59.68,25.84,15.6,0,29.16-2.81,40.67-8.43,11.5-5.62,21.26-12.64,29.26-21.06,7.99-8.43,13.75-16.76,17.26-25,2.72-5.99,7.21-7.67,13.46-5.06,6.24,2.25,7.99,6.56,5.27,12.92-4.3,10.87-10.82,22.29-19.6,34.27-8.78,11.99-20.97,22.19-36.57,30.61-15.61,8.43-36.28,12.64-62.02,12.64Z"/>
    <path class="cls-1" d="M1652.29,741.78c-21.29,0-39.85-4.19-55.69-12.56-15.85-8.37-23.76-24.06-23.76-47.09v-220.38h-51.98c-7.92,0-11.88-3.35-11.88-10.05v-1.88c0-2.92,1.11-5.12,3.34-6.59,2.23-1.46,5.07-2.61,8.54-3.45,28.7-8.37,50.86-21.03,66.45-37.98,15.59-16.95,25.36-40.7,29.33-71.26,0-6.69,3.96-10.05,11.88-10.05h12.62c2.97,0,5.68,.94,8.17,2.83,2.47,1.88,3.71,4.3,3.71,7.22v106.74h90.59c7.91,0,11.88,3.14,11.88,9.42v5.02c0,6.7-3.97,10.05-11.88,10.05h-90.59v198.4c0,23.03,14.11,34.53,42.32,34.53,13.37,0,25.36-3.35,36.01-10.05,10.64-6.69,18.68-14.44,24.13-23.23,3.96-6.28,10.14-7.32,18.56-3.14,3.46,1.68,5.2,3.77,5.2,6.28s-.74,5.44-2.23,8.79c-8.42,18-22.9,33.9-43.44,47.72-20.55,13.81-47.65,20.72-81.3,20.72Z"/>
    <path class="cls-1" d="M1863.57,735.04c-5.07,0-7.61-2.99-7.61-8.99,0-4.86,2.53-7.3,7.61-7.3,20.28,0,34.91-2.05,43.88-6.18,8.97-4.12,13.46-12.92,13.46-26.4V374.98c0-12.36-4.2-20.78-12.58-25.28-8.39-4.49-23.31-6.74-44.76-6.74-5.07,0-7.61-2.62-7.61-7.86s2.53-7.86,7.61-7.86c6.63,0,15.3,.19,26.04,.56,10.72,.38,22.13,.66,34.23,.84,12.09,.19,23.2,.28,33.35,.28s20.77-.09,33.06-.28c12.29-.18,23.99-.47,35.11-.84,11.12-.37,19.79-.56,26.04-.56,5.85,0,8.78,2.62,8.78,7.86s-2.93,7.86-8.78,7.86c-20.68,0-35.4,2.25-44.18,6.74-8.78,4.49-13.17,12.92-13.17,25.28v311.19c0,13.48,4.68,22.28,14.04,26.4,9.36,4.12,23.79,6.18,43.3,6.18,5.85,0,8.78,2.44,8.78,7.3,0,5.99-2.93,8.99-8.78,8.99-6.24,0-14.92-.18-26.04-.56-11.12-.37-22.82-.75-35.11-1.12-12.29-.37-23.31-.56-33.06-.56s-21.27,.19-33.35,.56c-12.1,.38-23.51,.75-34.23,1.12-10.73,.38-19.41,.56-26.04,.56Z"/>
    <path class="cls-1" d="M1436.02,685.94c-5.81,23.72-17.68,41.2-26.52,39.04s-11.3-23.15-5.49-46.87c5.81-23.72,26.52-39.04,26.52-39.04,0,0,11.3,23.15,5.49,46.87Z"/>
    <path class="cls-1" d="M1444.85,751.81c-25.58-12.35-43.11-29.01-39.15-37.2s27.9-4.82,53.48,7.53c25.58,12.35,39.15,37.2,39.15,37.2,0,0-27.9,4.82-53.48-7.53Z"/>
    <path class="cls-1" d="M1514.22,641.29c-5.61,19.83-18.54,33.52-28.88,30.6-10.34-2.93-14.18-21.37-8.57-41.2,5.61-19.83,28.88-30.6,28.88-30.6,0,0,14.18,21.37,8.57,41.2Z"/>
  </g>
  <path class="cls-1" d="M459.77,193.5c-191.37,0-346.5,155.13-346.5,346.5s155.13,346.5,346.5,346.5,346.5-155.13,346.5-346.5S651.13,193.5,459.77,193.5Zm-11.5,672.5c-173.7,0-314.5-144.61-314.5-323S274.57,220,448.27,220s314.5,144.61,314.5,323-140.81,323-314.5,323Z"/>
  <path class="cls-1" d="M642.48,415c-15.03,87.3-91.11,153.73-182.71,153.73s-167.69-66.43-182.72-153.73c-23.86,41.17-37.79,90.83-37.79,144.3,0,142.32,98.72,257.7,220.51,257.7s220.51-115.38,220.51-257.7c0-53.47-13.93-103.13-37.8-144.3Zm-361.21,269.02s36.04-83.52,80.5-83.52,80.5,83.52,80.5,83.52c0,0-35.54-27.17-80-27.17s-81,27.17-81,27.17Zm284.43,36.92c-16,34.88-57.39,59.73-105.93,59.73s-89.95-24.86-105.94-59.75c-5.41-11.8,2.59-26.76,11.84-22.02,26.47,13.56,73.66,36.15,94.23,36.14,20.51-.01,67.54-22.56,93.96-36.11,9.25-4.75,17.26,10.21,11.84,22.01Zm-7.43-64.09c-44.46,0-81,27.17-81,27.17,0,0,36.04-83.52,80.5-83.52s80.5,83.52,80.5,83.52c0,0-35.54-27.17-80-27.17Z"/>
  <path class="cls-1" d="M592,396.5c0,73.18-59.32,132.5-132.5,132.5s-132.5-59.32-132.5-132.5,59.32-132.5,132.5-132.5c10.86,0,21.41,1.31,31.5,3.77v135.48c-12.24-.65-26.86,1.42-41.83,6.44-34.82,11.67-58.43,34.93-52.72,51.95,5.7,17.02,38.56,21.35,73.38,9.67,33.36-11.18,56.43-33,53.28-49.78v-141.29c41.06,22.51,68.89,66.13,68.89,116.26Z"/>
</svg>